#!OML:ASF E:/inclinewalkrobotboard/Project1/Captureday1/Session1/subject1.ASF
:FULLY-SPECIFIED
:DEGREES
301
root 0 0 0 -3.7556984673141116 -2.743190286643451 3.700314072656235
lowerback 13.114065284402814 0.31150750692748685 -4.053797370598834
upperback 2.2521546098519947 -0.09953039712073619 0.16366892989566229
thorax -4.84865772356699 0.05514121112226644 2.49435824151344
lowerneck -14.675048246859419 -2.905197657750804 -2.742513663122963
upperneck 16.25696741566816 -3.644626269636497 2.0714787616574863
head 7.436548413886421 -1.7596149609989356 0.715071202201891
rclavicle -8.324620119715437E-16 3.664568372549914E-15
rhumerus -30.94049485955635 -21.291263523798314 -81.08487321798586
rradius 24.90725834143769
rwrist 12.460667552512717
rhand -19.923796829573995 26.570687673633984
rfingers 7.125020000000001
rthumb 6.43581954826349 -3.5036996865595
lclavicle -6.73501874378764E-16 3.6865285444484275E-15
lhumerus -28.466305015049983 -2.295869305638967 83.68991429918516
lradius 28.388949582551653
lwrist 7.085609696564557
lhand -28.3542552986149 26.116977812777666
lfingers 7.125020000000033
lthumb -1.7448465587286428 56.12722242527049
rfemur -24.220239474331454 -0.5773213494968892 15.638988952639902
rtibia 58.93459992178524
rfoot 5.716717640200592 -5.150164643917927
rtoes 8.514980183488866
lfemur 5.0930252027523055 -5.0329826270203455 -27.85078888824666
ltibia 18.2145273552007
lfoot -16.573340387028836 0.7134224074174473
ltoes 0.20816736948726344
302
root 0 0 0 -2.405480204930426 -1.5971358846415953 3.994601147021403
lowerback 11.639936136951903 -0.34577598789731445 -4.593043380270329
upperback 1.4947537473661803 -1.056262732034037 0.19079466715632365
thorax -4.823721691252027 -0.4135202672047763 2.9481121301518947
lowerneck -15.588053936076038 -2.6532564730784536 -2.9238822508857045
upperneck 12.717672696573366 -3.1554442669922365 1.863631222364119
head 6.298992970533082 -1.5980929354404751 0.7558890793392938
rclavicle 5.478675862084724E-16 2.938184259339903E-15
rhumerus -31.452896729745646 -22.288137310885332 -80.75481398725111
rradius 24.075648526230488
rwrist 12.019833483993821
rhand -19.835186650093252 26.24556384165038
rfingers 7.125020000000003
rthumb 6.522007693212452 -3.8222984444017243
lclavicle 4.4968990682147694E-15 3.025895493640659E-15
lhumerus -27.22240966541775 -4.8204961493522225 83.62930815024149
lradius 31.54919085649469
lwrist 8.566042193016772
lhand -28.24604892420777 25.363284705032395
lfingers 7.1250200000000214
lthumb -1.645205188116691 55.322028652093444
rfemur -27.6464630864375 0.2716505107932887 16.165008949121756
rtibia 53.72862905455397
rfoot 2.9628252345101593 -6.787981289710631
rtoes 6.928549034216746
lfemur 7.718400708572962 -5.510713531506159 -28.55449320646938
ltibia 17.3347940900962
lfoot -16.92225803053573 0.5017790658083836
ltoes 0.36070450406717214
303
root 0 0 0 -1.5138424591803108 -0.8969721135585333 3.7454682952176985
lowerback 10.51288665415641 -0.6893196318061475 -4.639282424636355
upperback 0.9316109214975858 -1.508700444756866 0.3640887106209385
thorax -4.777013791073891 -0.639108833980591 3.20597232325504
lowerneck -15.78839303507158 -2.610424035626946 -3.000262347723112
upperneck 11.364530122061646 -3.0370941860426957 1.8429936158882214
head 5.846551413735304 -1.5712242945044026 0.7896134829118737
rclavicle 2.7025564677906364E-16 1.6816512622487665E-15
rhumerus -31.948890748296954 -23.627337554592152 -80.45192429134191
rradius 23.200809087994692
rwrist 11.9205395330061
rhand -19.785917670718938 25.709032868681376
rfingers 7.125020000000003
rthumb 6.569830071839338 -4.362884184647406
lclavicle 4.731796666552199E-15 1.930023515940995E-15
lhumerus -26.71795572430092 -5.520161445659071 83.46408772440851
lradius 32.46971603942619
lwrist 8.844775413262933
lhand -28.198929737492872 24.831364576084916
lfingers 7.125020000000015
lthumb -1.6072730194135758 54.77529663338602
rfemur -31.427426653332343 2.4360104337027693 19.746826941242652
rtibia 46.414088077801665
rfoot -2.945707983656643 -9.600510363880831
rtoes 4.047051587189275
lfemur 9.515332197680731 -5.939762718635446 -28.666829741275077
ltibia 16.60906675921565
lfoot -16.560361853387015 0.13348544474961876
ltoes -0.29080227068941866
304
root 0 0 0 -0.9758065801974118 -0.20887207152498144 3.2417914334018305
lowerback 9.92198241947327 -0.9404962598614474 -4.562972420531011
upperback 0.6551772792211363 -1.7979883418612401 0.7159228703630305
thorax -4.71453546420842 -0.7786329130568699 3.559115295168663
lowerneck -15.440502871568874 -2.6825210421538657 -3.0486841303952477
upperneck 12.368349906449518 -3.148296691074053 1.9843042861818538
head 6.193011528581448 -1.6166282454446443 0.8311156618090343
rclavicle 7.856788334479011E-16 1.130876935232471E-15
rhumerus -32.247919314343015 -24.658749848581202 -80.16500377049236
rradius 22.491302503445155
rwrist 11.678495874748805
rhand -19.73592129234325 25.351867281177697
rfingers 7.125020000000003
rthumb 6.618449327842274 -4.719268002892218
lclavicle 5.486812292329482E-15 1.7471850319900085E-15
lhumerus -26.438811359332693 -5.549494804750474 83.15318711997062
lradius 32.626078127231864
lwrist 8.819831321446356
lhand -28.24423227095346 24.64259091618518
lfingers 7.125020000000014
lthumb -1.6534414835875566 54.59027056319243
rfemur -31.080216441921117 4.103101532220188 21.236301103311224
rtibia 37.83063661241036
rfoot -6.947169146375761 -11.198620929890884
rtoes 1.2357308243693588
lfemur 10.63064309437819 -6.272283814048792 -28.43418059062318
ltibia 16.418883422634394
lfoot -15.973006155119162 -0.23611161748086973
ltoes -1.4271825748742444
305
root 0 0 0 -0.7880515506160921 0.5699989403676495 2.550519541524442
lowerback 9.572104153353369 -1.198899462238879 -4.352499863438843
upperback 0.4328962522356088 -2.0555669986762446 1.2091005529580419
thorax -4.729044003781954 -0.9042892890451384 3.982804955326208
lowerneck -15.545474225436841 -2.836536685186374 -3.1584936431442263
upperneck 14.57069820739846 -3.3842884800479895 2.053077346347339
head 7.042410224847212 -1.7096114804625944 0.8268304395099191
rclavicle 1.4802928257748438E-15 1.0828302400951173E-15
rhumerus -32.579215784155544 -25.561226078729334 -79.8460977615743
rradius 21.715177197361356
rwrist 11.292100202358938
rhand -19.61612415194485 25.050061547991795
rfingers 7.125020000000005
rthumb 6.733993425889836 -5.008820817506422
lclavicle 6.408904374720573E-15 1.987962735482581E-15
lhumerus -26.328893105057595 -5.270282120592718 82.83349157408998
lradius 32.38532456484739
lwrist 8.652383083083372
lhand -28.32556860409315 24.70465031321666
lfingers 7.125020000000017
lthumb -1.7303093872629987 54.66374509113733
rfemur -29.079866258956905 4.955920652188027 21.59980141727366
rtibia 32.17223123545351
rfoot -8.677488113734366 -11.459676319609386
rtoes -0.27833940280109437
lfemur 11.623437822283073 -6.409754056094319 -27.951620215449786
ltibia 17.152445639067803
lfoot -15.059466508286992 -0.8870962725483014
ltoes -3.360878624132585
306
root 0 0 0 -0.8759151054410556 0.923889360812681 1.886067196128693
lowerback 9.03044941543965 -1.3643936422331473 -4.032975092034241
upperback 0.11342965969840788 -2.177223561797991 1.6313920487657547
thorax -4.762138878214672 -0.9683001264099 4.260838464255788
lowerneck -16.25719663426686 -2.917924465594556 -3.198536339812138
upperneck 17.060058649444127 -3.4933733195642 1.7995741419669102
head 8.060596418190155 -1.753471327363662 0.7110602056469244
rclavicle 1.7819169767303606E-15 1.0290861734688354E-15
rhumerus -33.04009734248396 -26.539287522471184 -79.48454439690761
rradius 20.636262384972717
rwrist 10.742297771589378
rhand -19.401336453580804 24.724914091549824
rfingers 7.125020000000007
rthumb 6.940839107286784 -5.313185174360502
lclavicle 6.695453135372843E-15 2.1061969028381424E-15
lhumerus -26.434451355138194 -4.90123390276381 82.67272104150956
lradius 31.99626279315297
lwrist 8.467195346684917
lhand -28.380361546122586 24.89065022515417
lfingers 7.125020000000021
lthumb -1.778646473640757 54.85724986501735
rfemur -27.408881939955368 5.343684396991314 22.13808445835849
rtibia 30.071313832467684
rfoot -9.233160089523674 -11.032468489790258
rtoes -0.2924045651691245
lfemur 12.523800403042653 -6.309715598089957 -27.208954219063173
ltibia 19.23032883174283
lfoot -13.753159572733587 -1.9340223141173163
ltoes -6.046033929127379
307
root 0 0 0 -1.3761935622328452 0.936099995551237 1.1220775652090036
lowerback 8.02513722616418 -1.4631606734790794 -3.343841041674926
upperback -0.3002882125656857 -2.1980948013745927 1.9326894788475886
thorax -4.664203138404438 -0.9917911878648635 4.208254325974898
lowerneck -17.17400077591143 -2.8442982508642776 -3.10626890797417
upperneck 18.77161737110627 -3.3787800838813715 1.2857116938011255
head 8.742211405342513 -1.708939463752216 0.513381729537838
rclavicle 2.0264656729908162E-15 8.572131375479081E-16
rhumerus -33.56857835692618 -27.328866549785516 -79.21391661310965
rradius 19.49614697629056
rwrist 10.010697729958718
rhand -19.159539342771353 24.432900837749802
rfingers 7.12502000000001
rthumb 7.173993873338132 -5.574483649924765
lclavicle 6.495782718782239E-15 2.0150861848859387E-15
lhumerus -26.718025223365125 -4.559791053610336 82.70802215990925
lradius 31.620841445653053
lwrist 8.3258819011575
lhand -28.37887654247759 25.090195074895824
lfingers 7.125020000000023
lthumb -1.7709069174288565 55.06492669334473
rfemur -25.506855908567015 5.568004450711241 22.98179748332857
rtibia 29.63289255171445
rfoot -9.447428577449816 -10.267750669011395
rtoes 0.6019033301243601
lfemur 12.771238458147405 -5.93850605039792 -26.258615099810854
ltibia 22.839994687648396
lfoot -12.033451982006362 -3.311493451362533
ltoes -8.572995503235347
308
root 0 0 0 -2.161474255419127 0.6811640399647056 0.40127064470890117
lowerback 8.224213917001999 -1.4997597420835822 -2.5144176007293773
upperback -0.11440401869713164 -2.1342244103925205 2.212973620141952
thorax -4.598193382121705 -0.9736097411893814 4.041570164698891
lowerneck -17.231224932404814 -2.71851096093375 -2.844462940616914
upperneck 20.01938051432367 -3.159897716697765 0.6639805043823619
head 9.078571107618616 -1.6318054360432008 0.2683459935927395
rclavicle 1.4511641757847854E-15 6.888434992393489E-16
rhumerus -34.00494964460268 -27.64342534338601 -79.1721431959717
rradius 18.61675381415955
rwrist 9.583376555879244
rhand -18.910735886069823 24.224923249846633
rfingers 7.125020000000013
rthumb 7.4140977481092945 -5.740963016171193
lclavicle 5.029763568715536E-15 1.808594396776223E-15
lhumerus -27.197185043996804 -4.165244117089801 82.90153438694801
lradius 31.162565645614105
lwrist 8.14709933092655
lhand -28.315553365772622 25.284604457902248
lfingers 7.125020000000027
lthumb -1.703573945125484 55.27042464443311
rfemur -22.61555926496284 5.796479644522005 24.364235051890596
rtibia 30.058406184368604
rfoot -9.804445496515449 -9.258821202082581
rtoes 1.9920281350242814
lfemur 11.305204621755053 -5.125115603197899 -24.774665987887523
ltibia 29.84120579904722
lfoot -8.619693208135175 -5.7291689982322165
ltoes -9.708056537275155
